<svg width="129" height="39" viewBox="0 0 129 39" xmlns="http://www.w3.org/2000/svg">
<path d="M50.4644 18.8425C51.4331 18.2925 52.2081 17.6075 52.7731 16.8C53.4151 15.8872 53.7548 14.796 53.7444 13.68C53.7444 11.5275 52.9394 9.84625 51.3531 8.685C49.7856 7.535 47.6294 6.95375 44.9419 6.95375H35.2244V31.8925H45.3306C48.1606 31.8925 50.4269 31.235 52.0656 29.9362C53.7169 28.6262 54.5556 26.7925 54.5556 24.4837C54.5556 23.0775 54.1606 21.8687 53.3844 20.89C52.6881 20.015 51.7069 19.3275 50.4644 18.8425ZM40.4831 11.4487H44.5194C45.7856 11.4487 46.7406 11.6937 47.3619 12.1775C47.9744 12.6525 48.2744 13.28 48.2744 14.09C48.2744 14.9025 47.9744 15.56 47.3619 16.0387C46.7406 16.5212 45.7856 16.7662 44.5194 16.7662H40.4831V11.4487ZM48.0819 26.5525C47.3819 27.1138 46.3131 27.3975 44.9069 27.3975H40.4831V21.295H44.9081C46.3131 21.295 47.3831 21.57 48.0856 22.1075C48.7819 22.645 49.1194 23.3538 49.1194 24.2775C49.1194 25.25 48.7806 25.9938 48.0819 26.5525ZM61.6619 13.2437H56.3669V31.8913H61.6606L61.6619 13.2437ZM113.951 16.05C113.103 15.0451 112.035 14.2494 110.829 13.725C109.597 13.1787 108.211 12.9012 106.712 12.9012C104.874 12.9012 103.217 13.3187 101.783 14.1412C100.365 14.9482 99.1942 16.1262 98.3956 17.5487C97.5819 18.9862 97.1706 20.6513 97.1706 22.5C97.1706 24.35 97.5706 26.125 98.3581 27.5837C99.1276 29.025 100.3 30.2108 101.733 30.9963C103.179 31.795 104.878 32.2 106.783 32.2C109.121 32.2 111.104 31.6125 112.683 30.4513C114.202 29.335 115.246 27.7612 115.816 25.7887H110.486C110.206 26.46 109.811 27.0312 109.244 27.4338C108.576 27.9088 107.712 28.1487 106.677 28.1487C105.779 28.1487 105.009 27.9312 104.389 27.5012C103.768 27.07 103.293 26.435 102.981 25.6087C102.781 25.0658 102.647 24.501 102.582 23.9263H115.908L115.934 23.7613C116.172 22.2575 116.112 20.8325 115.754 19.5263C115.412 18.25 114.797 17.0634 113.951 16.0487V16.05ZM102.667 20.475C102.748 20.0887 102.858 19.7092 102.998 19.34C103.323 18.5025 103.792 17.8587 104.393 17.4287C104.992 16.9987 105.737 16.7825 106.607 16.7825C107.698 16.7825 108.594 17.1362 109.269 17.8325C109.911 18.495 110.273 19.4 110.351 20.4737L102.667 20.475ZM61.7719 6.95375H56.2569V11.4487H61.7719V6.95375ZM90.7619 15.36C90.165 14.6314 89.4191 14.0389 88.5744 13.6225C87.5869 13.1437 86.4306 12.9012 85.1381 12.9012C83.5569 12.9012 82.1381 13.2925 80.9256 14.06C79.7131 14.8287 78.7506 15.9137 78.0694 17.2837C77.3881 18.6512 77.0431 20.2563 77.0431 22.0563C77.0431 23.8563 77.4056 25.3675 78.1231 26.7438C78.8419 28.125 79.8381 29.225 81.0844 30.015C82.3318 30.8062 83.7556 31.2087 85.3156 31.2087C86.4931 31.2087 87.5694 30.9538 88.5118 30.45C89.2384 30.0673 89.8737 29.5321 90.3744 28.8812V30.9113C90.3744 32.17 90.0444 33.1362 89.3944 33.78C88.7419 34.4237 87.7494 34.7487 86.4444 34.7487C85.3194 34.7487 84.4356 34.4937 83.8169 33.99C83.3106 33.5775 82.8681 33.0375 82.7656 31.8925H77.6606C77.7081 33.495 78.1781 34.5737 78.8431 35.52C79.5869 36.5788 80.6344 37.4075 81.9594 37.98C83.2694 38.545 84.7919 38.8325 86.4794 38.8325C89.3144 38.8325 91.5706 38.12 93.1856 36.7162C94.8106 35.305 95.6331 33.3288 95.6331 30.8438V13.2437H90.7631L90.7619 15.36ZM89.8306 24.5338C89.5238 25.1946 89.0346 25.754 88.4206 26.1462C87.8206 26.5212 87.0956 26.7138 86.2681 26.7138C85.0681 26.7138 84.1369 26.305 83.4181 25.4662C82.7006 24.63 82.3369 23.4825 82.3369 22.055C82.3369 20.6275 82.6994 19.48 83.4169 18.6437C84.1281 17.8162 85.0869 17.3962 86.2669 17.3962C87.4481 17.3962 88.4906 17.8213 89.2243 18.6625C89.9643 19.5112 90.3394 20.6637 90.3394 22.0875C90.3394 23.0112 90.1681 23.8325 89.8306 24.5325V24.5338ZM128.752 17.705V13.245H124.931V6.95375H119.672V13.245H116.408V17.705H119.672V25.005C119.672 29.0637 120.472 32.0462 125.454 31.9538L128.583 31.8913V27.7125H127.031C124.816 27.7125 124.939 26.4213 124.939 24.0225L124.931 17.7062L128.752 17.705ZM75.7569 17.705V13.245H71.9356V6.95375H66.6769V13.245H63.4119V17.705H66.6744V25.005C66.6744 29.0637 67.4744 32.0462 72.4581 31.9538L75.5856 31.8913V27.7125H74.0369C71.8219 27.7125 71.9444 26.4213 71.9444 24.0225L71.9356 17.7062L75.7569 17.705ZM13.1994 11.4487H21.1406L29.2644 19.52C29.7931 20.045 29.7956 20.9 29.2694 21.4275L18.8506 31.8987H10.6719L13.1456 29.4937L22.2256 20.4713L13.2606 11.4475"/>
<path d="M16.4619 20.45H8.5231L0.398105 12.3787C0.272372 12.2539 0.172492 12.1055 0.104181 11.942C0.0358699 11.7786 0.00046905 11.6032 4.62963e-06 11.426C-0.000459791 11.2489 0.0340213 11.0733 0.101474 10.9095C0.168928 10.7457 0.268028 10.5967 0.393105 10.4712L10.8119 0H18.9919L16.5194 2.405L7.4381 11.4275L16.4044 20.45"/>
</svg>
