<svg class="medium" width="105" height="36" viewBox="0 0 105 36" xmlns="http://www.w3.org/2000/svg">
<path d="M12.0249 35.9988H0.48999V8.44051H11.5589C16.9388 8.44051 20.0745 11.4598 20.0745 16.1811C20.0745 19.2409 18.0634 21.2115 16.6703 21.8702C18.337 22.6452 20.4646 24.3879 20.4646 28.0656C20.4646 33.2126 16.9388 35.9988 12.0249 35.9988ZM11.1333 13.2379H5.86992V19.5905H11.1333C13.418 19.5905 14.6946 18.3139 14.6946 16.4141C14.6946 14.5195 13.418 13.2379 11.1333 13.2379ZM11.4829 24.4284H5.86992V31.2014H11.4829C13.9195 31.2014 15.0847 29.6512 15.0847 27.7971C15.0847 25.9378 13.9195 24.4284 11.4829 24.4284Z"/>
<path d="M36.8729 24.6967V35.9988H31.5335V24.6967L23.2509 8.44051H29.0968L34.2438 19.5499L39.3146 8.44051H45.1557L36.8729 24.6967Z"/>
<path d="M60.409 35.9988H48.8741V8.44051H59.9431C65.3229 8.44051 68.4587 11.4598 68.4587 16.1811C68.4587 19.2409 66.4475 21.2115 65.0544 21.8702C66.7211 22.6452 68.8487 24.3879 68.8487 28.0656C68.8487 33.2126 65.3229 35.9988 60.409 35.9988ZM59.5175 13.2379H54.2541V19.5905H59.5175C61.8021 19.5905 63.0787 18.3139 63.0787 16.4141C63.0787 14.5195 61.8021 13.2379 59.5175 13.2379ZM59.8671 24.4284H54.2541V31.2014H59.8671C62.3037 31.2014 63.4688 29.6512 63.4688 27.7971C63.4637 25.9378 62.3037 24.4284 59.8671 24.4284Z"/>
<path d="M80.1098 -0.0012207H74.7299V27.557H80.1098V-0.0012207Z"/>
<path d="M97.4501 13.2379V35.9988H92.0703V13.2379H84.8717V8.44051H104.649V13.2379H97.4501Z"/>
</svg>
