<svg class="medium" width="154" height="36" viewBox="0 0 154 36" xmlns="http://www.w3.org/2000/svg">
<path fill-rule="evenodd" clip-rule="evenodd" d="M127.064 29.8433H131.41V12.6629H127.064V29.8433Z"/>
<path fill-rule="evenodd" clip-rule="evenodd" d="M127.064 10.6992H131.41V6.2337H127.064V10.6992Z"/>
<path fill-rule="evenodd" clip-rule="evenodd" d="M120.428 29.8418H124.774V25.3763H120.428V29.8418Z"/>
<path fill-rule="evenodd" clip-rule="evenodd" d="M89.6969 27.511C89.9506 28.2025 90.3368 28.7434 90.7968 29.1663C91.2623 29.5952 91.809 29.9295 92.4565 30.1195C93.1151 30.3091 93.8409 30.3834 94.6096 30.3834C95.4036 30.3834 96.1126 30.2985 96.7171 30.1308C97.2788 29.9759 97.8171 29.7565 98.3171 29.4782V26.3226C97.5204 26.6763 96.7759 26.8047 95.9269 26.8455C95.0304 26.8883 94.4996 26.6249 94.0574 26.193C93.5956 25.7401 93.3493 25.1496 93.3493 24.1592V14.615H98.3171V10.6992H93.3493V6.2337H89.3116V10.6992H86.8915V14.615H89.3116V24.8633C89.3116 25.9219 89.4403 26.8123 89.6969 27.511Z"/>
<path fill-rule="evenodd" clip-rule="evenodd" d="M63.5084 16.509H52.6891V21.1266H58.7645C58.4471 22.4457 57.8202 23.6281 56.9212 24.5727C55.5644 25.9974 53.6836 26.782 51.6247 26.782C47.3513 26.782 43.875 23.2093 43.875 18.8178C43.875 14.4263 47.3513 10.8534 51.6247 10.8534C53.9133 10.8534 56.0173 11.8598 57.4759 13.5962L60.9545 10.6751C58.648 7.89767 55.2261 6.23591 51.6247 6.23591C44.8738 6.23591 39.382 11.8802 39.382 18.8178C39.382 25.7554 44.8738 31.3995 51.6247 31.3995C54.9019 31.3995 57.9232 30.1858 60.1321 27.8663C61.9859 25.9194 63.2145 23.2031 63.4506 20.4822C63.5659 19.1547 63.5761 17.8369 63.5084 16.509Z"/>
<path fill-rule="evenodd" clip-rule="evenodd" d="M109.419 14.2617C111.912 14.2617 114.037 15.8721 114.868 18.1355H103.97C104.8 15.8721 106.926 14.2617 109.419 14.2617ZM119.171 21.7852C119.245 21.2833 119.285 20.7694 119.285 20.2465C119.285 14.648 114.867 10.1097 109.419 10.1097C103.972 10.1097 99.5551 14.648 99.5551 20.2465C99.5551 25.845 103.972 30.383 109.419 30.383C113.156 30.383 116.407 28.2472 118.082 25.0991L114.437 23.2818C113.424 25.0464 111.556 26.2311 109.419 26.2311C106.718 26.2311 104.447 24.3413 103.789 21.7784H115.048C115.048 21.7806 115.047 21.7828 115.047 21.7852H119.171Z"/>
<path fill-rule="evenodd" clip-rule="evenodd" d="M74.8219 26.2319C71.6056 26.2319 68.998 23.5522 68.998 20.2466C68.998 16.9409 71.6056 14.2613 74.8219 14.2613C78.0384 14.2613 80.6458 16.9409 80.6458 20.2466C80.6458 23.5522 78.0384 26.2319 74.8219 26.2319ZM74.8215 10.1273C69.3748 10.1273 64.9596 14.6651 64.9596 20.2626C64.9596 25.8601 69.3748 30.3981 74.8215 30.3981C80.2682 30.3981 84.6834 25.8601 84.6834 20.2626C84.6834 14.6651 80.2682 10.1273 74.8215 10.1273Z"/>
<path fill-rule="evenodd" clip-rule="evenodd" d="M80.6459 29.8427H84.6832V10.6831H80.6459V29.8427Z"/>
<path fill-rule="evenodd" clip-rule="evenodd" d="M143.535 26.231C140.318 26.231 137.712 23.5517 137.712 20.2463C137.712 16.9411 140.318 14.2617 143.535 14.2617C146.751 14.2617 149.358 16.9411 149.358 20.2463C149.358 23.5517 146.751 26.231 143.535 26.231ZM143.535 10.1097C138.088 10.1097 133.67 14.6478 133.67 20.2463C133.67 25.8447 138.088 30.383 143.535 30.383C148.982 30.383 153.4 25.8447 153.4 20.2463C153.4 14.6478 148.982 10.1097 143.535 10.1097Z"/>
<path fill-rule="evenodd" clip-rule="evenodd" d="M17.9145 27.9C12.5941 27.9 8.28145 23.4675 8.28145 18C8.28145 12.5322 12.5941 8.09995 17.9145 8.09995V0C8.24134 0 0.399902 8.05876 0.399902 18C0.399902 27.9412 8.24134 36 17.9145 36C27.5875 36 35.4289 27.9412 35.4289 18H27.5474C27.5474 23.4675 23.2345 27.9 17.9145 27.9Z"/>
<path fill-rule="evenodd" clip-rule="evenodd" d="M17.9134 17.9992L27.5474 18L27.5464 8.09918L17.9145 8.09995L17.9134 17.9992Z"/>
</svg>
