<svg class="medium" width="95" height="36" viewBox="0 0 95 36" xmlns="http://www.w3.org/2000/svg">
<path d="M15.7848 11.0437C15.8926 5.74545 12.8709 1.12862 11.2971 0.0190132C11.2899 0.0118768 11.1498 -0.0630457 11.1606 0.143891L11.157 0.151028C11.0025 10.1589 5.82126 12.8526 3.00428 16.524C-3.24765 24.6801 1.96949 33.9851 8.72804 35.7476C8.84302 35.7762 9.15563 35.8689 9.74847 35.9903C10.0575 36.0545 10.1473 35.794 9.92096 35.4052C9.1125 34.0031 7.67528 31.6483 7.39502 28.6262C6.74109 21.6047 15.6627 17.2126 15.7848 11.0437Z" />
<path d="M19.1948 14.4402C19.1409 14.4009 19.0655 14.4045 19.0583 14.4723C18.9146 15.746 17.5887 18.3863 15.8425 20.8552C9.96424 29.1791 12.9249 32.9538 15.2245 35.5727C15.6485 36.0578 15.8605 35.9509 16.0832 35.6049C16.2916 35.2766 16.6078 34.859 17.966 34.2206C18.178 34.1206 23.3089 31.4162 23.8659 25.258C24.4013 19.296 20.553 15.532 19.1948 14.4402Z" />
<path d="M49.718 12.9203V34.8235H44.9859V25.9751H35.8919V34.8235H31.0411V12.9203H35.8919V21.7686H44.9859V12.9203H49.718Z" />
<path d="M71.5923 12.9203V17.2517H64.7978V34.8235H59.9294V17.2553H53.2569V12.9203H71.5923Z" />
<path fill-rule="evenodd" clip-rule="evenodd" d="M88.8283 34.8449L83.2663 27.2241L77.7473 34.8129L72.3506 34.8235L80.5319 23.6419L72.8105 12.9239H78.2036L94.2 34.8485H88.8283V34.8449Z" />
<path d="M84.7789 17.8261L87.4486 21.5081L93.7725 12.9203H88.4081L84.7789 17.8261Z" />
</svg>
