<svg class="small" width="93" height="28" viewBox="0 0 93 28" xmlns="http://www.w3.org/2000/svg">
<path d="M27.7841 0H1.41301C1.25037 0 1.09439 0.0655027 0.97944 0.182256C0.864364 0.298884 0.799805 0.457137 0.799805 0.622266V27.3779C0.799805 27.5429 0.864364 27.7011 0.97944 27.8177C1.09439 27.9345 1.25037 28 1.41301 28H27.7841C27.9469 28 28.1029 27.9345 28.2178 27.8177C28.3329 27.7011 28.3975 27.5429 28.3975 27.3779V0.622266C28.3975 0.457137 28.3329 0.298884 28.2178 0.182256C28.1029 0.0655027 27.9469 0 27.7841 0ZM19.1982 18.0445C19.1982 18.2095 19.1336 18.3677 19.0186 18.4845C18.9036 18.6011 18.7476 18.6667 18.585 18.6667H10.6123C10.4496 18.6667 10.2936 18.6011 10.1786 18.4845C10.0636 18.3677 9.99906 18.2095 9.99906 18.0445V9.95551C9.99906 9.79051 10.0636 9.63226 10.1786 9.51563C10.2936 9.39887 10.4496 9.33337 10.6123 9.33337H18.585C18.7476 9.33337 18.9036 9.39887 19.0186 9.51563C19.1336 9.63226 19.1982 9.79051 19.1982 9.95551V18.0445Z" />
<path d="M82.9946 9.33508H75.022C74.6833 9.33508 74.4086 9.61359 74.4086 9.95722V18.0462C74.4086 18.3898 74.6833 18.6685 75.022 18.6685H82.9946C83.3333 18.6685 83.6079 18.3898 83.6079 18.0462V9.95722C83.6079 9.61359 83.3333 9.33508 82.9946 9.33508Z" />
<path d="M73.7879 0H65.8153C65.4766 0 65.202 0.278507 65.202 0.622266V8.71111C65.202 9.05474 65.4766 9.33337 65.8153 9.33337H73.7879C74.1268 9.33337 74.4013 9.05474 74.4013 8.71111V0.622266C74.4013 0.278507 74.1268 0 73.7879 0Z" />
<path d="M92.1866 0H84.2139C83.8752 0 83.6005 0.278507 83.6005 0.622266V8.71111C83.6005 9.05474 83.8752 9.33337 84.2139 9.33337H92.1866C92.5253 9.33337 92.7998 9.05474 92.7998 8.71111V0.622266C92.7998 0.278507 92.5253 0 92.1866 0Z" />
<path d="M73.7879 18.6664H65.8153C65.4766 18.6664 65.202 18.9449 65.202 19.2885V27.3775C65.202 27.7211 65.4766 27.9998 65.8153 27.9998H73.7879C74.1268 27.9998 74.4013 27.7211 74.4013 27.3775V19.2885C74.4013 18.9449 74.1268 18.6664 73.7879 18.6664Z" />
<path d="M92.1866 18.6664H84.2139C83.8752 18.6664 83.6005 18.9449 83.6005 19.2885V27.3775C83.6005 27.7211 83.8752 27.9998 84.2139 27.9998H92.1866C92.5253 27.9998 92.7998 27.7211 92.7998 27.3775V19.2885C92.7998 18.9449 92.5253 18.6664 92.1866 18.6664Z" />
<path d="M59.978 0H52.0054C51.6667 0 51.3921 0.278507 51.3921 0.622266V8.71111C51.3921 9.05474 51.6667 9.33337 52.0054 9.33337H59.978C60.3167 9.33337 60.5913 9.05474 60.5913 8.71111V0.622266C60.5913 0.278507 60.3167 0 59.978 0Z" />
<path d="M59.978 18.6664H52.0054C51.6667 18.6664 51.3921 18.9449 51.3921 19.2885V27.3775C51.3921 27.7211 51.6667 27.9998 52.0054 27.9998H59.978C60.3167 27.9998 60.5913 27.7211 60.5913 27.3775V19.2885C60.5913 18.9449 60.3167 18.6664 59.978 18.6664Z" />
<path d="M51.3921 9.94852C51.3921 9.78351 51.3274 9.62526 51.2124 9.50863C51.0973 9.39187 50.9414 9.32638 50.7787 9.32638H42.1928V0.622266C42.1928 0.457137 42.1281 0.298884 42.0132 0.182256C41.8981 0.0655027 41.7421 0 41.5795 0H33.6069C33.4441 0 33.2881 0.0655027 33.1732 0.182256C33.0581 0.298884 32.9935 0.457137 32.9935 0.622266V27.3639C32.9935 27.5289 33.0581 27.6871 33.1732 27.8037C33.2881 27.9205 33.4441 27.986 33.6069 27.986H41.5795C41.7421 27.986 41.8981 27.9205 42.0132 27.8037C42.1281 27.6871 42.1928 27.5289 42.1928 27.3639V18.6597H50.7787C50.9414 18.6597 51.0973 18.5941 51.2124 18.4775C51.3274 18.3607 51.3921 18.2025 51.3921 18.0375V9.94852Z" />
</svg>
